<?xml version="1.0" standalone="no"?>
<svg viewBox="0 0 200 200" xmlns="http://www.w3.org/2000/svg">
  <path fill="#8A3FFC" d="M39.3,-67.6C52.6,-60.3,66.4,-53.3,74.2,-42.1C82,-30.9,83.8,-15.4,84.5,0.4C85.1,16.1,84.5,32.3,78,45.9C71.6,59.5,59.4,70.5,45.4,77.5C31.4,84.4,15.7,87.2,-0.5,88C-16.6,88.8,-33.3,87.6,-44.9,79.4C-56.5,71.1,-63,55.6,-70.7,41.2C-78.4,26.8,-87.3,13.4,-88.7,-0.8C-90.1,-15,-84.1,-30.1,-76.3,-44.3C-68.5,-58.5,-58.8,-71.8,-45.8,-79.3C-32.8,-86.8,-16.4,-88.4,-1.7,-85.4C13,-82.4,25.9,-74.9,39.3,-67.6Z" transform="translate(100 100)" />
</svg>
